<?xml version="1.0" ?><svg viewBox="0 0 129.88 129.88" xmlns="http://www.w3.org/2000/svg" xmlns:xlink="http://www.w3.org/1999/xlink"><defs><style>.cls-1{fill:url(#linear-gradient);}.cls-2,.cls-4,.cls-5,.cls-6{stroke:#fff;}.cls-2,.cls-5{stroke-miterlimit:10;}.cls-2{stroke-width:5px;fill:url(#linear-gradient-2);}.cls-3{fill:url(#linear-gradient-3);}.cls-4,.cls-6{fill:none;stroke-linejoin:round;stroke-width:4.6px;}.cls-5{stroke-width:4px;fill:url(#linear-gradient-4);}.cls-6{stroke-linecap:round;}</style><linearGradient gradientUnits="userSpaceOnUse" id="linear-gradient" x1="21.02" x2="108.82" y1="89.82" y2="39.13"><stop offset="0.02" stop-color="red"/><stop offset="1" stop-color="#9e005d"/></linearGradient><linearGradient id="linear-gradient-2" x1="57.8" x2="92.28" xlink:href="#linear-gradient" y1="74.01" y2="74.01"/><linearGradient id="linear-gradient-3" x1="37.56" x2="79.95" xlink:href="#linear-gradient" y1="58.89" y2="58.89"/><linearGradient id="linear-gradient-4" x1="44.73" x2="72.78" xlink:href="#linear-gradient" y1="58.89" y2="58.89"/></defs><title/><g data-name="Layer 1" id="Layer_1"><path class="cls-1" d="M86.31,13.78H43.53A13.65,13.65,0,0,0,31.71,20.6L10.32,57.65a13.67,13.67,0,0,0,0,13.64l21.39,37.05a13.65,13.65,0,0,0,11.82,6.82H86.31a13.63,13.63,0,0,0,11.81-6.82l21.39-37a13.62,13.62,0,0,0,0-13.64l-21.39-37A13.63,13.63,0,0,0,86.31,13.78Z"/><path class="cls-2" d="M68.86,58.67l4.66,4.64h0l3.25,3.26,1.89,1.88h0L90.38,80.2a6.47,6.47,0,1,1-9.15,9.16L70.48,78.58,59.7,67.83a6.48,6.48,0,0,1,9.16-9.16Z"/><path class="cls-3" d="M80,58.89a21.2,21.2,0,1,1-21.2-21.2A21.2,21.2,0,0,1,80,58.89Z"/><path class="cls-4" d="M80,58.89a21.2,21.2,0,1,1-21.2-21.2A21.2,21.2,0,0,1,80,58.89Z"/><path class="cls-5" d="M72.78,58.89a14,14,0,1,1-14-14A14,14,0,0,1,72.78,58.89Z"/><path class="cls-6" d="M58.75,52a6.88,6.88,0,0,1,6.88,6.88"/></g></svg>