<svg aria-hidden="true" style="position: absolute; width: 0; height: 0; overflow: hidden;" version="1.1" xmlns="http://www.w3.org/2000/svg" xmlns:xlink="http://www.w3.org/1999/xlink">
<defs>
<symbol id="icon-multimedia" viewBox="0 0 32 32">
<path fill="#336dff" style="fill: var(--color1, #336dff)" d="M28 28.167h-24c-1.105 0-2-0.895-2-2v0-20.333c0-1.105 0.895-2 2-2v0h24c1.105 0 2 0.895 2 2v0 20.333c0 1.105-0.895 2-2 2v0zM4 5.167c-0.368 0-0.667 0.298-0.667 0.667v0 20.333c0 0.368 0.298 0.667 0.667 0.667v0h24c0.368 0 0.667-0.298 0.667-0.667v0-20.333c0-0.368-0.298-0.667-0.667-0.667v0z"></path>
<path fill="#336dff" style="fill: var(--color1, #336dff)" d="M10.707 22.863c-0.003 0-0.006 0-0.010 0-0.258 0-0.499-0.073-0.703-0.2l0.006 0.003c-0.406-0.274-0.669-0.733-0.669-1.252 0-0.029 0.001-0.057 0.002-0.085l-0 0.004v-10.667c-0.004-0.039-0.006-0.084-0.006-0.129 0-0.782 0.634-1.417 1.417-1.417 0.276 0 0.534 0.079 0.752 0.216l-0.006-0.003 10.95 5.473c0.485 0.198 0.827 0.652 0.86 1.189l0 0.004c-0.033 0.541-0.375 0.995-0.851 1.19l-0.009 0.003-10.95 5.473c-0.227 0.12-0.496 0.192-0.782 0.197l-0.001 0zM10.707 10.47h-0.017c-0.015 0.056-0.023 0.119-0.023 0.185 0 0.004 0 0.008 0 0.012v-0.001 10.667c-0.001 0.010-0.002 0.022-0.002 0.034 0 0.062 0.015 0.12 0.043 0.172l-0.001-0.002c0.070-0.012 0.133-0.034 0.19-0.065l-0.003 0.002 10.95-5.473-10.95-5.473c-0.053-0.030-0.115-0.051-0.182-0.057l-0.002-0zM22.14 16.597v0z"></path>
</symbol>
<symbol id="icon-chat" viewBox="0 0 32 32">
<path fill="#336dff" style="fill: var(--color1, #336dff)" d="M17.333 29.12c-0.282-0.002-0.55-0.059-0.794-0.162l0.014 0.005c-0.722-0.304-1.22-1.006-1.22-1.824 0-0.009 0-0.018 0-0.027v0.001-2.113c0-0.368-0.298-0.667-0.667-0.667v0h-10.667c-1.105 0-2-0.895-2-2v0-17.333c0-1.105 0.895-2 2-2v0h24c1.105 0 2 0.895 2 2v0 17.333c0 1.105-0.895 2-2 2v0h-4.78c-0 0-0 0-0.001 0-0.185 0-0.352 0.075-0.473 0.197l-4 4c-0.358 0.364-0.856 0.59-1.407 0.59-0.002 0-0.004 0-0.006 0h0zM4 4.333c-0.368 0-0.667 0.298-0.667 0.667v0 17.333c0 0.368 0.298 0.667 0.667 0.667v0h10.667c1.105 0 2 0.895 2 2v0 2.113c0 0 0 0.001 0 0.001 0 0.276 0.167 0.512 0.406 0.614l0.004 0.002c0.076 0.032 0.164 0.051 0.256 0.051 0.184 0 0.35-0.074 0.471-0.195l4-4c0.362-0.362 0.862-0.587 1.415-0.587 0.001 0 0.001 0 0.002 0h4.78c0.368 0 0.667-0.298 0.667-0.667v0-17.333c0-0.368-0.298-0.667-0.667-0.667v0z"></path>
<path fill="#336dff" style="fill: var(--color1, #336dff)" d="M25.333 9h-18.667c-0.368 0-0.667-0.298-0.667-0.667s0.298-0.667 0.667-0.667v0h18.667c0.368 0 0.667 0.298 0.667 0.667s-0.298 0.667-0.667 0.667v0z"></path>
<path fill="#336dff" style="fill: var(--color1, #336dff)" d="M25.333 14.333h-18.667c-0.368 0-0.667-0.298-0.667-0.667s0.298-0.667 0.667-0.667v0h18.667c0.368 0 0.667 0.298 0.667 0.667s-0.298 0.667-0.667 0.667v0z"></path>
<path fill="#336dff" style="fill: var(--color1, #336dff)" d="M25.333 19.667h-18.667c-0.368 0-0.667-0.298-0.667-0.667s0.298-0.667 0.667-0.667v0h18.667c0.368 0 0.667 0.298 0.667 0.667s-0.298 0.667-0.667 0.667v0z"></path>
</symbol>
<symbol id="icon-download" viewBox="0 0 32 32">
<path fill="#336dff" style="fill: var(--color1, #336dff)" d="M28 30h-24c-1.105 0-2-0.895-2-2v0-12c0-0.368 0.298-0.667 0.667-0.667s0.667 0.298 0.667 0.667v0 12c0 0.368 0.298 0.667 0.667 0.667v0h24c0.368 0 0.667-0.298 0.667-0.667v0-12c0-0.368 0.298-0.667 0.667-0.667s0.667 0.298 0.667 0.667v0 12c0 1.105-0.895 2-2 2v0z"></path>
<path fill="#336dff" style="fill: var(--color1, #336dff)" d="M16 22.78c-0 0-0.001 0-0.002 0-0.551 0-1.050-0.223-1.412-0.583l-5.723-5.727c-0.1-0.116-0.16-0.268-0.16-0.434 0-0.368 0.298-0.667 0.667-0.667 0.166 0 0.318 0.061 0.434 0.161l-0.001-0.001 5.727 5.723c0.121 0.121 0.287 0.196 0.472 0.196s0.351-0.075 0.472-0.196v0l5.723-5.723c0.116-0.1 0.268-0.16 0.434-0.16 0.368 0 0.667 0.298 0.667 0.667 0 0.166-0.061 0.318-0.161 0.434l0.001-0.001-5.723 5.727c-0.362 0.36-0.861 0.583-1.412 0.583-0.001 0-0.001 0-0.002 0h0z"></path>
<path fill="#336dff" style="fill: var(--color1, #336dff)" d="M16 22.667c-0.368 0-0.667-0.298-0.667-0.667v0-12.667c0-0.368 0.298-0.667 0.667-0.667s0.667 0.298 0.667 0.667v0 12.667c0 0.368-0.298 0.667-0.667 0.667v0z"></path>
<path fill="#336dff" style="fill: var(--color1, #336dff)" d="M16 10c-2.209 0-4-1.791-4-4s1.791-4 4-4c2.209 0 4 1.791 4 4v0c0 2.209-1.791 4-4 4v0zM16 3.333c-1.473 0-2.667 1.194-2.667 2.667s1.194 2.667 2.667 2.667c1.473 0 2.667-1.194 2.667-2.667v0c0-1.473-1.194-2.667-2.667-2.667v0z"></path>
</symbol>
<symbol id="icon-like" viewBox="0 0 32 32">
<path fill="#336dff" style="fill: var(--color1, #336dff)" d="M16 28.58c-0.001 0-0.003 0-0.005 0-0.549 0-1.047-0.222-1.409-0.58l-9.97-9.977c-3.263-3.263-3.42-8.6-0.333-11.897 1.549-1.679 3.76-2.727 6.215-2.727 1.933 0 3.714 0.649 5.138 1.742l-0.020-0.015c0.111 0.086 0.252 0.137 0.405 0.137s0.294-0.052 0.407-0.138l-0.002 0.001c1.404-1.077 3.185-1.726 5.117-1.726 2.456 0 4.667 1.048 6.211 2.72l0.005 0.006c3.073 3.297 2.917 8.633-0.333 11.897l-10.013 9.977c-0.361 0.358-0.859 0.58-1.408 0.58-0.002 0-0.003 0-0.005 0h0zM10.48 4.743c-2.067 0.003-3.928 0.882-5.233 2.286l-0.004 0.004c-2.577 2.78-2.447 7.3 0.313 10.047l9.973 9.97c0.12 0.12 0.287 0.194 0.47 0.194s0.349-0.074 0.47-0.194l9.973-9.97c2.76-2.76 2.9-7.267 0.313-10.047v0c-1.306-1.409-3.166-2.288-5.232-2.288-1.629 0-3.131 0.547-4.332 1.467l0.017-0.013c-0.332 0.254-0.753 0.408-1.21 0.408s-0.878-0.153-1.215-0.411l0.005 0.004c-1.182-0.908-2.682-1.455-4.31-1.457h-0z"></path>
</symbol>
<symbol id="icon-goit" viewBox="0 0 107 32">
<path fill="#ff6b0a" style="fill: var(--color2, #ff6b0a)" d="M106.667 0v32h-47.131v-32h47.131zM74.42 8.811v13.927c0 0.015 0 0.030 0.001 0.044v0 0c0.001 0.029 0.001 0.058-0.001 0.087-0.007 0.080 0.015 0.128 0.107 0.115 0.022-0.002 0.044-0.002 0.066-0.001 0.011 0 0.022 0.001 0.033 0.001 0.39 0 0.781 0 1.171 0h0.003c0.78 0 1.561 0.001 2.342-0 0.025 0 0.046 0 0.066 0 0.075 0.001 0.112 0.001 0.129-0.017s0.016-0.051 0.014-0.116v-0c-0-0.022-0.001-0.048-0.001-0.078v-13.943c0-0.011-0-0.022-0.001-0.033-0.001-0.022-0.001-0.044 0.001-0.066 0.008-0.082-0.020-0.125-0.109-0.115-0.018 0.002-0.036 0.001-0.054 0.001h-0c-0.009-0-0.019-0.001-0.028-0.001-0.394 0-0.788-0-1.183-0h-0c-0.789-0-1.578-0.001-2.367 0-0.023 0-0.044-0-0.062-0.001-0.065-0.001-0.098-0.001-0.114 0.015s-0.016 0.049-0.015 0.116c0 0.019 0.001 0.040 0.001 0.064zM93.999 8.617h-5.863c-1.954 0-3.908 0-5.86-0.002l-0.022 0-0.023 0c-0.029 0-0.058 0.001-0.088-0-0.066-0.003-0.089 0.028-0.084 0.089 0.001 0.019 0.001 0.036 0 0.054-0 0.009-0 0.018-0 0.028v3.335l-0 0.035c-0 0.072-0.001 0.107 0.017 0.124s0.051 0.017 0.118 0.016l0.046-0h3.683c0.12 0 0.18 0 0.209 0.030s0.029 0.087 0.029 0.2v10.282c0 0.020-0 0.037-0 0.053v0c-0.001 0.059-0.001 0.090 0.014 0.106 0.017 0.018 0.052 0.017 0.127 0.017l0.036-0h3.535c0.111 0 0.166 0 0.193-0.028s0.027-0.080 0.027-0.186v-10.282c0-0.022-0-0.042-0.001-0.059-0.001-0.063-0.001-0.097 0.015-0.114 0.018-0.019 0.055-0.018 0.133-0.018l0.049 0h3.749c0.162 0 0.162 0 0.164-0.159v-3.318c0-0.023 0-0.043 0-0.061v-0c0.001-0.072 0.001-0.108-0.016-0.126s-0.053-0.017-0.123-0.016c-0.018 0-0.039 0.001-0.063 0.001z"></path>
<path fill="#010101" style="fill: var(--color3, #010101)" d="M47.132 0l12.403 16-12.403 16h-47.132v-32h47.132zM20.752 13.662c0.071 0.058 0.143 0.116 0.215 0.174 0.048-0.029 0.078-0.069 0.106-0.107v0c0.006-0.009 0.013-0.018 0.020-0.026 0.254-0.302 0.507-0.606 0.76-0.91 0.507-0.606 1.012-1.212 1.518-1.82 0.101-0.122 0.097-0.177-0.018-0.276-0.091-0.079-0.183-0.156-0.277-0.233-0.803-0.657-1.685-1.17-2.684-1.467-0.667-0.197-1.349-0.306-2.043-0.353-0.905-0.061-1.802-0.031-2.691 0.174-3.112 0.716-5.434 3.292-5.707 6.594-0.073 0.89-0.003 1.772 0.225 2.638 0.519 1.96 1.645 3.461 3.434 4.45 0.975 0.539 2.030 0.823 3.14 0.912 0.94 0.076 1.87 0.018 2.788-0.189 1.553-0.35 2.925-1.056 4.146-2.067 0.098-0.080 0.137-0.161 0.137-0.289-0.004-1.572-0.004-3.145-0.003-4.717l0-1.179c0-0.020-0.001-0.041-0.003-0.062-0.003-0.046-0.006-0.092 0.006-0.134 0.015-0.049-0.012-0.077-0.037-0.104-0.021-0.022-0.042-0.044-0.039-0.077 0.007-0.054-0.030-0.062-0.073-0.062h-6.556c-0.013 0-0.025 0-0.038 0.001-0.026 0.001-0.052 0.002-0.077-0.001-0.066-0.007-0.087 0.026-0.083 0.087 0.002 0.025 0.002 0.051 0.001 0.077-0 0.013-0.001 0.025-0.001 0.038 0 0.345-0 0.69-0 1.035-0 0.69-0.001 1.38 0 2.070 0 0.028-0.001 0.053-0.001 0.074-0.001 0.063-0.002 0.096 0.014 0.112s0.052 0.017 0.125 0.016h0c0.018-0 0.039-0 0.062-0h2.593c0.023 0 0.043-0 0.061-0 0.072-0.001 0.107-0.001 0.124 0.016 0.016 0.016 0.015 0.048 0.014 0.11-0 0.022-0.001 0.048-0.001 0.078 0.001 0.15 0.001 0.299 0 0.449-0 0.075-0 0.15-0 0.225v0.005c0 0.308 0 0.311-0.279 0.445-0.818 0.391-1.681 0.503-2.573 0.391-0.991-0.123-1.784-0.591-2.365-1.401-0.378-0.527-0.585-1.122-0.662-1.763-0.097-0.818 0.002-1.605 0.373-2.348 0.448-0.892 1.125-1.533 2.098-1.827 0.682-0.207 1.373-0.153 2.056-0.003 0.619 0.135 1.159 0.437 1.657 0.816 0.182 0.138 0.359 0.281 0.539 0.427l0 0zM39.098 10.682c-1.528-1.39-3.348-2.052-5.229-2.066-0.869 0.002-1.518 0.072-2.207 0.251-1.998 0.521-3.563 1.638-4.602 3.422-1.067 1.83-1.283 3.793-0.687 5.812 0.667 2.257 2.089 3.9 4.29 4.815 1.69 0.701 3.44 0.795 5.206 0.332 2.051-0.537 3.624-1.725 4.654-3.578 0.869-1.562 1.102-3.238 0.778-4.987-0.291-1.572-1.017-2.919-2.203-4zM30.661 14.21c0.666-1.227 1.729-1.815 2.762-1.838 2.094-0.005 3.464 1.173 3.837 2.806 0.226 0.984 0.125 1.94-0.358 2.834-0.57 1.050-1.458 1.661-2.654 1.797-1.156 0.133-2.165-0.194-2.99-1.025-0.529-0.532-0.847-1.181-0.983-1.914-0.172-0.928-0.066-1.827 0.386-2.66z"></path>
</symbol>
<symbol id="icon-pixabay" viewBox="0 0 165 32">
<path fill="#4E75FF" style="fill: var(--color1, #4E75FF)" d="M135.242 10.376c-0.898-0.636-1.551-1.28-1.551-2.075h-4.996c0 1.431-0.653 2.075-1.458 2.075h-1.334v14.528h25.942v-14.528h-16.696zM133.69 14.527h-4.675v-2.075h5.188v1.67zM142.471 22.607c-2.96 0-5.368-2.377-5.368-5.299s2.408-5.177 5.368-5.177c2.96 0 5.368 2.255 5.368 5.177s-2.408 5.299-5.368 5.299zM145.357 17.307c0 1.571-1.295 2.849-2.885 2.849s-2.886-1.278-2.886-2.849c0-1.571 1.294-2.849 2.886-2.849s2.885 1.278 2.885 2.849zM165.335 8.4l-6.459 16.465-4.956-1.987v-2.806l3.442 1.409 4.545-11.585-17.029-6.511-1.578 4.917h-2.842l2.906-8.302 21.972 8.401z"></path>
<path fill="#ff6b0a" style="fill: var(--color1, #ff6b0a)" d="M8.771 7.364c4.278-0.098 8.294 3.382 8.746 7.648 0.541 3.75-1.665 7.644-5.122 9.166-2.094 1.040-4.459 0.72-6.711 0.773h-2.201v7.050h-3.486c0.007-5.44-0.014-10.88 0.011-16.32 0.114-4.052 3.432-7.682 7.439-8.221 0.438-0.065 0.882-0.097 1.324-0.096zM8.771 21.465c2.514 0.063 4.872-1.899 5.248-4.39 0.501-2.507-1.098-5.202-3.543-5.954-2.362-0.838-5.203 0.265-6.356 2.495-0.895 1.524-0.577 3.325-0.636 5.004v2.844c1.763 0 3.525 0 5.288 0z"></path>
<path fill="#ff6b0a" style="fill: var(--color1, #ff6b0a)" d="M19.203 7.279h3.446v17.587h-3.446v-17.587z"></path>
<path fill="#ff6b0a" style="fill: var(--color1, #ff6b0a)" d="M33.006 18.383h0.126l4.899 6.532h4.271l-6.657-9.044 5.904-8.541h-4.271l-4.145 6.029h-0.126l-4.145-6.029h-4.271l5.904 8.541-6.657 9.044h4.271z"></path>
<path fill="#ff6b0a" style="fill: var(--color1, #ff6b0a)" d="M50.105 7.279c3.491-0.069 6.839 2.218 8.13 5.446 0.674 1.499 0.665 3.161 0.643 4.77v7.371c-3.111-0.011-6.222 0.021-9.332-0.017-3.576-0.175-6.846-2.782-7.869-6.203-0.938-2.975-0.159-6.429 2.050-8.65 1.65-1.707 3.995-2.739 6.378-2.717zM55.393 21.381c-0.015-1.956 0.031-3.913-0.026-5.867-0.206-2.62-2.633-4.815-5.263-4.748-2.5-0.060-4.857 1.879-5.248 4.354-0.458 2.375 0.905 4.963 3.172 5.849 1.396 0.609 2.938 0.358 4.414 0.411 0.983 0 1.967 0 2.95 0z"></path>
<path fill="#ff6b0a" style="fill: var(--color1, #ff6b0a)" d="M69.369 7.364c4.128-0.102 7.985 3.146 8.643 7.212 0.746 3.853-1.431 8.016-5.019 9.602-3.506 1.655-8.015 0.589-10.426-2.444-1.494-1.76-2.138-4.101-2.011-6.383v-15.037h3.486v7.050c1.776 0 3.552-0 5.328 0zM69.369 21.465c2.647 0.071 5.067-2.152 5.261-4.786 0.332-2.618-1.608-5.25-4.199-5.726-1.433-0.196-2.888-0.064-4.331-0.103h-2.058c0.022 1.987-0.047 3.978 0.040 5.962 0.277 2.625 2.651 4.704 5.288 4.653z"></path>
<path fill="#ff6b0a" style="fill: var(--color1, #ff6b0a)" d="M88.26 7.279c3.491-0.069 6.838 2.218 8.13 5.446 0.674 1.499 0.665 3.161 0.643 4.77v7.371c-3.111-0.011-6.222 0.021-9.332-0.017-3.576-0.175-6.846-2.782-7.869-6.203-0.939-2.975-0.159-6.429 2.050-8.65 1.65-1.707 3.995-2.739 6.377-2.717zM93.548 21.381c-0.015-1.956 0.031-3.913-0.026-5.867-0.206-2.62-2.633-4.815-5.263-4.748-2.5-0.060-4.857 1.879-5.248 4.354-0.458 2.375 0.905 4.963 3.172 5.849 1.396 0.609 2.938 0.358 4.414 0.411 0.983 0 1.967 0 2.95 0z"></path>
<path fill="#ff6b0a" style="fill: var(--color1, #ff6b0a)" d="M116.218 7.322c-0.007 5.427 0.014 10.855-0.011 16.281-0.126 4.271-3.797 8.11-8.082 8.333-0.814 0.043-1.63 0.017-2.445 0.024v-3.486c1.487-0.007 3.079 0.144 4.396-0.699 1.645-0.923 2.691-2.785 2.654-4.667-3.090 2.491-7.88 2.362-10.884-0.21-2.189-1.767-3.385-4.61-3.216-7.408v-8.168h3.486c0.016 3.105-0.033 6.212 0.026 9.315 0.189 2.556 2.468 4.719 5.029 4.78 2.595 0.199 5.094-1.816 5.481-4.384 0.156-1.536 0.045-3.088 0.079-4.631v-5.081c1.162-0 2.325-0 3.487-0z"></path>
</symbol>
</defs>
</svg>
